<svg width="15" height="16" viewBox="0 0 15 16" fill="none" xmlns="http://www.w3.org/2000/svg">
<path opacity="0.4" d="M13.7499 10.1627C13.7499 11.9064 12.3499 13.3189 10.6062 13.3252H10.5999H4.40619C2.66869 13.3252 1.24994 11.9189 1.24994 10.1752V10.1689C1.24994 10.1689 1.25369 7.4027 1.25869 6.01145C1.25931 5.7502 1.55931 5.60395 1.76369 5.76645C3.24869 6.94457 5.90431 9.0927 5.93744 9.12082C6.38119 9.47645 6.94369 9.67707 7.51869 9.67707C8.09369 9.67707 8.65619 9.47645 9.09994 9.11395C9.13306 9.09207 11.7293 7.00832 13.2368 5.81082C13.4418 5.6477 13.7431 5.79395 13.7437 6.05457C13.7499 7.4352 13.7499 10.1627 13.7499 10.1627" fill="white"/>
<path d="M13.4225 3.74596C12.8812 2.72596 11.8162 2.07471 10.6437 2.07471H4.40624C3.23374 2.07471 2.16874 2.72596 1.62749 3.74596C1.50624 3.97408 1.56374 4.25846 1.76561 4.41971L6.40624 8.13158C6.73124 8.39408 7.12499 8.52471 7.51874 8.52471C7.52124 8.52471 7.52311 8.52471 7.52499 8.52471C7.52686 8.52471 7.52936 8.52471 7.53124 8.52471C7.92499 8.52471 8.31874 8.39408 8.64374 8.13158L13.2844 4.41971C13.4862 4.25846 13.5437 3.97408 13.4225 3.74596" fill="white"/>
</svg>
